<svg xmlns="http://www.w3.org/2000/svg" width="254" height="60" viewBox="0 0 254 60" fill="none">
  <g clip-path="url(#clip0_846_6062)">
    <path fill-rule="evenodd" clip-rule="evenodd" d="M25.1801 8.04649V0L0 14.5373V22.6643L25.1801 8.04649ZM0 25.9902L16.4964 16.4551V24.5686L6.99523 30.0805V39.629L0 43.6656C0 38.4354 0 31.2204 0 25.9902Z" fill="#00E1AC"/>
    <path fill-rule="evenodd" clip-rule="evenodd" d="M8.04064 41.4261L1.04541 45.4494C9.44326 50.3041 17.8366 55.1543 26.2256 60.0001L33.261 55.9769C24.8721 51.1221 16.4653 46.2719 8.04064 41.4261ZM36.1824 54.2871L19.6726 44.752L26.6946 40.7288L36.1824 46.187L44.4507 41.4127L51.4325 45.436L36.1824 54.2871Z" fill="#1CA887"/>
    <path fill-rule="evenodd" clip-rule="evenodd" d="M45.5624 39.6156L52.5576 43.6388C52.5576 33.9473 52.5576 24.2512 52.5576 14.5507L45.5222 10.5275C45.5222 20.2369 45.5222 29.9419 45.5222 39.6424L45.5624 39.6156ZM42.5606 8.83773L27.2568 0V8.04649L35.5251 12.8207V23.831L42.5472 27.8543L42.5606 8.83773Z" fill="#22C7A0"/>
    <path fill-rule="evenodd" clip-rule="evenodd" d="M75.9959 42.1235V34.077H86.864V30.3085H75.9959V24.3944H87.4804V20.465H71.9087V42.1235H75.9959ZM104.754 19.9956C97.263 19.9956 93.618 25.722 93.618 31.435C93.618 37.148 97.1424 42.6197 104.754 42.6197C112.366 42.6197 115.81 37.0005 115.877 31.3948C115.944 25.7891 112.218 19.9956 104.754 19.9956V19.9956ZM104.754 23.7104C109.873 23.7104 111.91 27.8007 111.857 31.4619C111.803 35.123 109.887 38.8915 104.754 38.8915C99.6216 38.8915 97.7321 35.0828 97.6383 31.5155C97.5445 27.9482 99.6484 23.7372 104.754 23.7372V23.7104ZM143.281 41.8418L136.688 34.4391C138.296 34.2028 139.755 33.3662 140.772 32.0974C141.789 30.8286 142.288 29.2216 142.169 27.5995C142.169 23.8311 139.489 20.4248 134.37 20.3979C130.939 20.3979 127.495 20.3979 124.065 20.3979V42.1235H128.152V34.8682H132.078L138.39 42.1235H143.255V41.8418H143.281ZM134.397 24.2066C134.88 24.1641 135.367 24.2228 135.826 24.3787C136.286 24.5346 136.707 24.7845 137.065 25.1124C137.423 25.4403 137.708 25.8391 137.904 26.2835C138.099 26.7278 138.2 27.208 138.2 27.6934C138.2 28.1789 138.099 28.659 137.904 29.1034C137.708 29.5477 137.423 29.9465 137.065 30.2744C136.707 30.6023 136.286 30.8522 135.826 31.0081C135.367 31.1641 134.88 31.2227 134.397 31.1802H128.179V24.2066H134.397ZM169.024 42.1235H173.112V20.465H168.435L161.654 29.7721L154.873 20.465H150.156V42.1235H154.176V26.3792L161.091 35.7667H161.895L168.957 26.3792V42.1235H169.024ZM198.278 38.1002H186.11V33.1919H197.85V29.3832H186.11V24.3675H198.332V20.3443H182.117V42.0698H198.332V38.0466L198.278 38.1002ZM225.844 41.8552L219.278 34.4525C220.886 34.2162 222.345 33.3796 223.361 32.1108C224.378 30.842 224.877 29.235 224.758 27.613C224.758 23.8445 222.078 20.4382 216.959 20.4113C213.529 20.4113 210.085 20.4113 206.654 20.4113V42.1369H210.674V34.8682H214.601L220.912 42.1235H225.777V41.8418L225.844 41.8552ZM216.959 24.2066C217.442 24.1641 217.929 24.2228 218.389 24.3787C218.848 24.5346 219.27 24.7845 219.628 25.1124C219.985 25.4403 220.271 25.8391 220.466 26.2835C220.662 26.7278 220.763 27.208 220.763 27.6934C220.763 28.1789 220.662 28.659 220.466 29.1034C220.271 29.5477 219.985 29.9465 219.628 30.2744C219.27 30.6023 218.848 30.8522 218.389 31.0081C217.929 31.1641 217.442 31.2227 216.959 31.1802H210.741V24.2066H216.959ZM242.876 19.9956C235.385 19.9956 231.727 25.722 231.727 31.435C231.727 37.148 235.265 42.6197 242.876 42.6197C250.488 42.6197 253.932 37.0005 253.999 31.3948C254.066 25.7891 250.341 19.9956 242.876 19.9956V19.9956ZM242.876 23.7104C247.995 23.7104 250.032 27.8007 249.965 31.4619C249.898 35.123 247.995 38.8915 242.876 38.8915C237.757 38.8915 235.854 35.0828 235.761 31.5155C235.667 27.9482 237.771 23.7104 242.876 23.7104Z" fill="#222B4E"/>
  </g>
  <defs>
    <clipPath id="clip0_846_6062">
      <rect width="254" height="60" fill="white"/>
    </clipPath>
  </defs>
</svg>