<svg xmlns="http://www.w3.org/2000/svg" width="254" height="60" viewBox="0 0 60 60" fill="none">
  <g clip-path="url(#clip0_846_6062)">
    <path fill-rule="evenodd" clip-rule="evenodd" d="M25.1801 8.04649V0L0 14.5373V22.6643L25.1801 8.04649ZM0 25.9902L16.4964 16.4551V24.5686L6.99523 30.0805V39.629L0 43.6656C0 38.4354 0 31.2204 0 25.9902Z" fill="#00E1AC"/>
    <path fill-rule="evenodd" clip-rule="evenodd" d="M8.04064 41.4261L1.04541 45.4494C9.44326 50.3041 17.8366 55.1543 26.2256 60.0001L33.261 55.9769C24.8721 51.1221 16.4653 46.2719 8.04064 41.4261ZM36.1824 54.2871L19.6726 44.752L26.6946 40.7288L36.1824 46.187L44.4507 41.4127L51.4325 45.436L36.1824 54.2871Z" fill="#1CA887"/>
    <path fill-rule="evenodd" clip-rule="evenodd" d="M45.5624 39.6156L52.5576 43.6388C52.5576 33.9473 52.5576 24.2512 52.5576 14.5507L45.5222 10.5275C45.5222 20.2369 45.5222 29.9419 45.5222 39.6424L45.5624 39.6156ZM42.5606 8.83773L27.2568 0V8.04649L35.5251 12.8207V23.831L42.5472 27.8543L42.5606 8.83773Z" fill="#22C7A0"/>
  </g>
  <defs>
    <clipPath id="clip0_846_6062">
      <rect width="60" height="60" fill="white"/>
    </clipPath>
  </defs>
</svg>